HIERARCHY
ROOT Hips
{
	OFFSET 0.000000 88.474243 0.000000
	CHANNELS 6 Xposition Yposition Zposition Zrotation Yrotation Xrotation 
	JOINT Hips_Spine
	{
		OFFSET 0.000000 0.000000 0.000000
		CHANNELS 3 Zrotation Yrotation Xrotation
		JOINT Spine
		{
			OFFSET 0.005100 8.711998 -0.691000
			CHANNELS 3 Zrotation Yrotation Xrotation
			JOINT Spine1
			{
				OFFSET -0.009200 8.660301 -1.275000
				CHANNELS 3 Zrotation Yrotation Xrotation
				JOINT Spine2
				{
					OFFSET 0.006300 9.852501 -1.857000
					CHANNELS 3 Zrotation Yrotation Xrotation
					JOINT Spine2_Neck
					{
						OFFSET 0.000000 0.000000 0.000000
						CHANNELS 3 Zrotation Yrotation Xrotation
						JOINT Neck
						{
							OFFSET 0.016300 11.420799 -0.263300
							CHANNELS 3 Zrotation Yrotation Xrotation
							End Site #name: Head
							{
								OFFSET -0.019200 9.262405 2.362500
							}
						}
					}
					JOINT Spine2_LeftShoulder
					{
						OFFSET 0.000000 0.000000 0.000000
						CHANNELS 3 Zrotation Yrotation Xrotation
						JOINT LeftShoulder
						{
							OFFSET 5.616900 6.732201 -0.345700
							CHANNELS 3 Zrotation Yrotation Xrotation
							JOINT LeftArm
							{
								OFFSET 10.664888 -0.183372 -2.440700
								CHANNELS 3 Zrotation Yrotation Xrotation
								JOINT LeftForeArm
								{
									OFFSET 27.459126 0.000000 0.000000
									CHANNELS 3 Zrotation Yrotation Xrotation
									End Site #name: LeftHand
									{
										OFFSET 21.306858 0.000000 0.000000
									}
								}
							}
						}
					}
					JOINT Spine2_RightShoulder
					{
						OFFSET 0.000000 0.000000 0.000000
						CHANNELS 3 Zrotation Yrotation Xrotation
						JOINT RightShoulder
						{
							OFFSET -5.580300 6.737503 -0.344400
							CHANNELS 3 Zrotation Yrotation Xrotation
							JOINT RightArm
							{
								OFFSET -10.679335 -0.188484 -2.383900
								CHANNELS 3 Zrotation Yrotation Xrotation
								JOINT RightForeArm
								{
									OFFSET -27.503529 0.000000 0.000000
									CHANNELS 3 Zrotation Yrotation Xrotation
									End Site #name: RightHand
									{
										OFFSET -21.306808 0.000000 0.000000
									}
								}
							}
						}
					}
				}
			}
		}
	}
	JOINT Hips_LeftUpLeg
	{
		OFFSET 0.000000 0.000000 0.000000
		CHANNELS 3 Zrotation Yrotation Xrotation
		JOINT LeftUpLeg
		{
			OFFSET 6.857700 -6.739601 0.312100
			CHANNELS 3 Zrotation Yrotation Xrotation
			JOINT LeftLeg
			{
				OFFSET -0.367590 -34.731552 -4.572400
				CHANNELS 3 Zrotation Yrotation Xrotation
				End Site #name: LeftFoot
				{
					OFFSET 0.367590 -34.656704 -6.067400
				}
			}
		}
	}
	JOINT Hips_RightUpLeg
	{
		OFFSET 0.000000 0.000000 0.000000
		CHANNELS 3 Zrotation Yrotation Xrotation
		JOINT RightUpLeg
		{
			OFFSET -6.876100 -6.733299 0.301000
			CHANNELS 3 Zrotation Yrotation Xrotation
			JOINT RightLeg
			{
				OFFSET 0.347353 -34.795158 -4.515900
				CHANNELS 3 Zrotation Yrotation Xrotation
				End Site #name: RightFoot
				{
					OFFSET -0.347353 -34.589367 -6.070300
				}
			}
		}
	}
}
MOTION
Frames: 10
Frame Time: 0.041667
0.000000 -0.000000 0.000000 -0.734983 -2.120948 18.257047 0.000000 0.000000 0.000000 0.630355 -0.584626 0.486674 -0.966278 -1.177168 1.083708 0.000000 0.000000 0.000000 -0.964900 -1.176029 1.086150 -0.516975 1.446315 -3.729241 -0.964900 -1.176029 1.086150 -3.016663 4.273627 -0.175894 -87.284312 -60.343071 45.794518 179.999927 -80.194988 179.999986 -0.964900 -1.176029 1.086150 6.933061 -3.743348 -0.068456 55.762179 -17.961514 -10.893302 -0.000002 13.884470 -0.000011 0.000000 0.000000 0.000000 -9.836184 7.027299 -55.454936 3.273461 14.197347 53.752270 0.000000 0.000000 0.000000 9.922501 -1.237854 -11.837580 -3.902979 -8.533222 20.589982 
0.038878 0.271652 -0.492853 -0.642461 -3.993466 18.585842 0.000000 0.000000 0.000000 0.373811 -0.605979 0.727130 -1.000816 -0.993125 1.480000 0.000000 0.000000 0.000000 -1.000811 -0.990509 1.481773 -1.045281 1.753684 -3.928888 -1.000811 -0.990509 1.481773 -3.737212 4.590921 -0.258490 -90.663668 -58.815543 48.596424 -179.999994 -81.377690 -179.999623 -1.000811 -0.990509 1.481773 6.470612 -2.943584 0.114103 58.442686 -13.930503 -9.790591 -0.000006 12.515645 -0.000003 0.000000 0.000000 0.000000 -10.183248 7.671501 -55.170739 3.618913 14.624124 52.297391 0.000000 0.000000 0.000000 9.202051 -0.461389 -13.310912 -4.815502 -8.246726 22.063350 
-0.111680 2.260017 -0.206005 0.691641 -3.392139 17.942376 0.000000 0.000000 0.000000 -0.886944 -1.102060 0.980325 -1.354374 -1.605062 1.769793 0.000000 0.000000 0.000000 -1.358583 -1.602911 1.768524 -0.784292 1.839672 -3.338511 -1.358583 -1.602911 1.768524 -4.484705 4.674056 -0.286995 -93.700718 -55.217514 50.759932 -179.998182 -83.732199 179.998713 -1.358583 -1.602911 1.768524 6.410352 -2.606039 0.189878 61.121688 -12.130942 -9.064009 0.000014 10.530088 0.000004 0.000000 0.000000 0.000000 -10.135652 6.800856 -51.277345 1.923630 14.848498 45.802548 0.000000 0.000000 0.000000 6.878213 -1.213998 -15.099129 -4.964931 -8.704646 23.461227 
-0.219880 4.676323 0.562350 2.770731 -1.063445 16.794281 0.000000 0.000000 0.000000 -2.700391 -1.822849 1.133582 -1.723427 -2.843729 1.911596 0.000000 0.000000 0.000000 -1.735306 -2.844515 1.899213 -0.223730 1.707681 -2.459791 -1.735306 -2.844515 1.899213 -5.086939 4.537065 -0.264868 -95.212269 -51.753115 51.229274 -179.999705 -86.353256 179.999573 -1.735306 -2.844515 1.899213 6.628277 -2.702964 0.180877 62.619852 -12.439607 -8.338698 0.000011 9.219593 -0.000000 0.000000 0.000000 0.000000 -9.874327 3.624595 -45.127196 -0.090271 13.205251 36.848348 0.000000 0.000000 0.000000 2.780898 -3.355879 -17.400356 -4.490947 -9.014835 24.698420 
-0.178104 6.227668 1.865889 3.865125 0.685752 15.850283 0.000000 0.000000 0.000000 -3.328199 -2.280725 0.995351 -1.560678 -3.996256 1.721018 0.000000 0.000000 0.000000 -1.571765 -4.000201 1.700708 -0.212644 1.582772 -1.673763 -1.571765 -4.000201 1.700708 -5.561864 4.456339 -0.261749 -95.155185 -50.612628 49.723285 -179.994105 -88.493217 179.994182 -1.571765 -4.000201 1.700708 6.701371 -2.578659 0.211340 62.598713 -14.298595 -7.984305 0.000010 9.234427 -0.000001 0.000000 0.000000 0.000000 -10.771480 -1.536341 -39.949771 5.129056 8.466806 33.028992 0.000000 0.000000 0.000000 0.157940 -4.116837 -21.306222 0.100792 1.727620 30.386363 
0.139664 6.727378 3.406228 3.306876 0.220114 14.763191 0.000000 0.000000 0.000000 -2.187704 -2.394563 0.661774 -0.619109 -4.468356 1.271380 0.000000 0.000000 0.000000 -0.621863 -4.468868 1.268086 -1.212058 1.777248 -0.676307 -0.621863 -4.468868 1.268086 -5.924931 4.723438 -0.346239 -93.719097 -52.746332 46.264828 0.097516 -89.793731 -0.097464 -0.621863 -4.468868 1.268086 6.355674 -1.736027 0.346564 61.432760 -17.181893 -8.866183 0.000002 9.931556 -0.000002 0.000000 0.000000 0.000000 -11.646619 -5.646107 -34.480037 4.792323 -5.002252 30.093395 0.000000 0.000000 0.000000 -1.572042 -0.307523 -28.020511 3.498102 8.941504 46.358073 
0.766783 6.292854 4.590956 2.238845 -2.208515 12.897596 0.000000 0.000000 0.000000 -0.730393 -2.332670 0.441991 0.766208 -4.380697 1.003797 0.000000 0.000000 0.000000 0.768576 -4.373838 1.030665 -2.916880 2.385687 0.630384 0.768576 -4.373838 1.030665 -5.989284 5.324309 -0.503009 -90.753355 -57.836735 41.174399 -0.001223 -87.643040 0.001159 0.768576 -4.373838 1.030665 5.736146 -0.532696 0.511203 60.040508 -20.407363 -11.438541 -0.000004 10.297973 -0.000004 0.000000 0.000000 0.000000 -13.061696 -7.223559 -29.089498 6.242063 -13.536957 29.313566 0.000000 0.000000 0.000000 -4.421788 8.504486 -34.180516 3.640054 11.590059 63.026272 
1.411616 5.579361 5.160881 1.632025 -4.794870 10.715286 0.000000 0.000000 0.000000 -0.300071 -2.248426 0.582084 1.784900 -4.214311 1.291768 0.000000 0.000000 0.000000 1.785657 -4.200177 1.334089 -3.998316 2.943717 1.379721 1.785657 -4.200177 1.334089 -5.468044 5.865859 -0.623208 -85.901422 -64.737656 34.899263 0.000262 -83.931209 -0.000229 1.785657 -4.200177 1.334089 5.273147 0.031306 0.570296 59.303559 -22.863948 -15.055261 -0.000001 10.043036 0.000013 0.000000 0.000000 0.000000 -14.028346 -6.243421 -26.672022 7.411452 -14.313729 31.188977 0.000000 0.000000 0.000000 -10.939404 19.093523 -39.836872 3.213114 10.812544 75.022914 
1.754242 5.234039 5.500237 1.671265 -5.535047 9.582083 0.000000 0.000000 0.000000 -1.176653 -2.312232 0.953909 1.906118 -4.268915 1.923310 0.000000 0.000000 0.000000 1.902536 -4.254609 1.957368 -3.541689 2.940685 1.073446 1.902536 -4.254609 1.957368 -4.336412 5.875017 -0.592133 -79.356022 -71.740021 27.903972 -0.000113 -77.940491 0.000152 1.902536 -4.254609 1.957368 5.324078 -0.722795 0.447301 59.304512 -23.906776 -18.253137 0.000003 9.589139 0.000007 0.000000 0.000000 0.000000 -14.611876 -3.936772 -26.057748 6.170383 -13.920463 32.560880 0.000000 0.000000 0.000000 -18.785289 25.929859 -45.355951 0.247914 10.042214 79.308721 
1.925727 5.514793 6.044590 1.299455 -3.607524 9.965569 0.000000 0.000000 0.000000 -1.470794 -2.598925 1.212147 1.711675 -4.678806 2.365694 0.000000 0.000000 0.000000 1.704367 -4.666758 2.394104 -2.022824 2.424889 0.349274 1.704367 -4.666758 2.394104 -3.083331 5.235553 -0.400080 -73.079639 -76.867776 21.422452 0.000010 -69.861128 -0.000001 1.704367 -4.666758 2.394104 5.891815 -2.482775 0.163404 59.521771 -24.281310 -19.785604 0.000015 9.465608 0.000012 0.000000 0.000000 0.000000 -13.350101 -1.539819 -26.295304 3.666212 -12.688438 32.402129 0.000000 0.000000 0.000000 -23.416980 25.264626 -49.127989 -4.428318 9.069305 76.155309 
